<svg width="110" height="38" viewBox="0 0 110 38" fill="none" xmlns="http://www.w3.org/2000/svg">
<rect x="0.5" y="0.5" width="109" height="37" rx="4.5" stroke="#6C63FF"/>
<path d="M28.678 25.18C26.734 25.18 25.246 24.658 24.214 23.614C23.182 22.558 22.666 21.124 22.666 19.312C22.666 17.392 23.164 15.898 24.16 14.83C25.168 13.762 26.668 13.228 28.66 13.228C29.356 13.228 29.98 13.282 30.532 13.39C31.096 13.486 31.624 13.624 32.116 13.804V15.928C31.096 15.508 30.004 15.298 28.84 15.298C27.52 15.298 26.572 15.628 25.996 16.288C25.42 16.948 25.132 17.956 25.132 19.312C25.132 21.856 26.38 23.128 28.876 23.128C29.44 23.128 29.998 23.08 30.55 22.984C31.102 22.876 31.63 22.72 32.134 22.516V24.658C31.642 24.814 31.114 24.94 30.55 25.036C29.998 25.132 29.374 25.18 28.678 25.18ZM32.914 25L37.342 13.408H40.006L44.416 25H41.896L40.798 22.21H36.532L35.452 25H32.914ZM36.892 20.338H40.438L38.656 15.676L36.892 20.338ZM46.1061 25V13.408H48.2121L53.7021 21.13V13.408H56.1321V25H54.0261L48.5361 17.278V25H46.1061ZM63.8343 25.18C61.8903 25.18 60.4023 24.658 59.3703 23.614C58.3383 22.558 57.8223 21.124 57.8223 19.312C57.8223 17.392 58.3203 15.898 59.3163 14.83C60.3243 13.762 61.8243 13.228 63.8163 13.228C64.5123 13.228 65.1363 13.282 65.6883 13.39C66.2523 13.486 66.7803 13.624 67.2723 13.804V15.928C66.2523 15.508 65.1603 15.298 63.9963 15.298C62.6763 15.298 61.7283 15.628 61.1523 16.288C60.5763 16.948 60.2883 17.956 60.2883 19.312C60.2883 21.856 61.5363 23.128 64.0323 23.128C64.5963 23.128 65.1543 23.08 65.7063 22.984C66.2583 22.876 66.7863 22.72 67.2903 22.516V24.658C66.7983 24.814 66.2703 24.94 65.7063 25.036C65.1543 25.132 64.5303 25.18 63.8343 25.18ZM68.9752 25V13.408H77.2912V15.298H71.4052V18.268H76.6252V20.14H71.4052V23.128H77.2912V25H68.9752ZM78.9772 25V13.408H81.4072V23.128H87.1132V25H78.9772Z" fill="#6C63FF"/>
</svg>
