<svg width="97" height="38" viewBox="0 0 97 38" fill="none" xmlns="http://www.w3.org/2000/svg">
<rect width="97" height="38" rx="5" fill="#6C63FF"/>
<path d="M22.666 25L27.094 13.408H29.758L34.168 25H31.648L30.55 22.21H26.284L25.204 25H22.666ZM26.644 20.338H30.19L28.408 15.676L26.644 20.338ZM35.858 25V13.408H41.294C42.206 13.408 42.95 13.582 43.526 13.93C44.114 14.278 44.552 14.752 44.84 15.352C45.128 15.952 45.272 16.636 45.272 17.404C45.272 18.184 45.104 18.874 44.768 19.474C44.444 20.074 43.976 20.542 43.364 20.878C42.764 21.202 42.05 21.364 41.222 21.364H38.288V25H35.858ZM38.288 19.438H40.718C41.414 19.438 41.936 19.258 42.284 18.898C42.644 18.526 42.824 18.028 42.824 17.404C42.824 16.732 42.656 16.222 42.32 15.874C41.984 15.514 41.48 15.334 40.808 15.334H38.288V19.438ZM46.6158 25V13.408H52.0518C52.9638 13.408 53.7078 13.582 54.2838 13.93C54.8718 14.278 55.3098 14.752 55.5978 15.352C55.8858 15.952 56.0298 16.636 56.0298 17.404C56.0298 18.184 55.8618 18.874 55.5258 19.474C55.2018 20.074 54.7338 20.542 54.1218 20.878C53.5218 21.202 52.8078 21.364 51.9798 21.364H49.0458V25H46.6158ZM49.0458 19.438H51.4758C52.1718 19.438 52.6938 19.258 53.0418 18.898C53.4018 18.526 53.5818 18.028 53.5818 17.404C53.5818 16.732 53.4138 16.222 53.0778 15.874C52.7418 15.514 52.2378 15.334 51.5658 15.334H49.0458V19.438ZM57.3737 25V13.408H59.8037V23.128H65.5097V25H57.3737ZM67.4998 25V20.716L63.3418 13.408H65.8798L68.7238 18.646L71.5678 13.408H74.0878L69.9298 20.716V25H67.4998Z" fill="#F7F7F7"/>
</svg>
